<?xml version="1.0" encoding="utf-8"?>
<!-- Generator: Adobe Illustrator 23.0.3, SVG Export Plug-In . SVG Version: 6.00 Build 0)  -->
<svg version="1.1" id="Layer_1" xmlns="http://www.w3.org/2000/svg" xmlns:xlink="http://www.w3.org/1999/xlink" x="0px" y="0px"
	 viewBox="0 0 491.8 491.8"  xml:space="preserve">
<style type="text/css">
	.st0{fill:#1A1A1A;}
	.st1{fill:#1B1B1B;}
	.st2{fill:#1C1C1C;}
	.st3{fill:#191919;}
	.st4{fill:#FEFEFE;}
	.st5{fill:#FBFBFB;}
	.st6{fill:#FDFDFD;}
	.st7{fill:#FCFCFC;}
	.st8{fill:#F4F4F4;}
	.st9{fill:#F8F8F8;}
	.st10{fill:#F9F9F9;}
	.st11{fill:#FAFAFA;}
	.st12{fill:#242424;}
	.st13{fill:#1E1E1E;}
	.st14{fill:#212121;}
	.st15{fill:#E8E8E8;}
	.st16{fill:#EBEBEB;}
	.st17{fill:#2E2E2E;}
	.st18{fill:#333333;}
	.st19{fill:#222222;}
	.st20{fill:#F6F6F6;}
	.st21{fill:#F7F7F7;}
	.st22{fill:#F5F5F5;}
	.st23{fill:#1D1D1D;}
	.st24{fill:#F0F0F0;}
	.st25{fill:#EDEDED;}
	.st26{fill:#E9E9E9;}
	.st27{fill:#EEEEEE;}
	.st28{fill:#F1F1F1;}
	.st29{fill:#E7E7E7;}
	.st30{fill:#F3F3F3;}
	.st31{fill:#32AADF;}
	.st32{fill:#E9585B;}
	.st33{fill:#2AB574;}
	.st34{fill:#F7AE3F;}
</style>
<g>
	<path class="st32" d="M289.1,86.5c11.5,0.4,22.3,5.8,30.4,16.6c5.9,7.8,12.6,14.5,23.3,15.2c14.2,0.9,24.2-6.1,26.3-21
		c1-7.4,4.6-7.5,9.8-7.1c7.8,0.7,3.2,6.1,2.8,8.9c-2.3,14.4-9.7,25.7-24,30.2c-14.6,4.6-28.2,1.7-39.6-9c-3.1-2.9-6-6.2-8.6-9.6
		c-8-10.6-18.8-13.5-30.9-10.1c-11.7,3.2-14.8,13.3-16.1,23.9c-0.5,3.6,0.4,7.3-5.5,7.2c-5.2-0.1-7.6-0.9-7.2-7
		C250.9,101.7,265.6,86.4,289.1,86.5z"/>
	<path class="st32" d="M256.1,154.4c-2.3,0-4.7,0.4-6.9-0.1c-3.4-0.7-9.1,3.1-9.1-4.8c0-6.3,0.2-12.3,8-13.6
		c4.2-0.7,8.5-0.6,12.8-0.4c8.3,0.4,11,5.2,10.8,13.2c-0.2,9.2-6.7,4.6-10.7,5.6C259.5,154.7,257.7,154.4,256.1,154.4z"/>
	<path class="st32" d="M361.9,173.2c-19.5-0.1-39.1,0-58.6,0c-4.6,0-9.1,1-8.9-6.6c0.2-5.5-4.4-7.4-9.8-7.4
		c-19.2,0.2-38.4,0.2-57.6,0.2c-5.5,0-9.6,2.2-9.7,7.6c-0.1,6.6-3.7,6.3-8.3,6.2c-21.2-0.1-42.4-0.6-63.6,0.1
		c-42.2,1.4-78.5,31.2-89.2,72.4c-10.7,40.9,6.7,84.4,42.6,106.9c35.8,22.4,84.7,20.5,113.9-9.6c15.8-16.2,31.4-19.8,51.2-18
		c2.6,0.2,5.3,0.3,7.9,0c6.5-0.8,10.7,1.6,15,6.8c19.2,23.3,44.4,34.9,65.2,35.2c62.8,0,106.3-43,106.6-96.2
		C459,217.1,415.9,173.5,361.9,173.2z M183.1,287.3c-17.6,0-17.9,0.3-17.9,17.9c0,6.8-1.9,10.1-9,9.2c-0.7-0.1-1.3,0-2,0
		c-21.8,0.2-21.9,0.2-22.8-21.3c-0.2-4.7-1.4-6-6.2-6.1c-21-0.7-20.5-0.9-21.1-21.8c-0.3-9.5,2.6-13.4,12.2-11.9
		c2.9,0.4,6-0.2,8.9,0.1c4.9,0.6,5.9-1.6,6.1-6.2c0.8-21.3,1-20.9,22.8-21.4c9.1-0.2,12.1,3,10.9,11.5c-0.2,1.6,0.2,3.4-0.1,5
		c-1.7,9.2,2.2,11.7,11.2,11.3c17.9-0.6,15.8-2.7,16,16.6c0,2.7-0.2,5.3,0,8C193,285.1,190,287.3,183.1,287.3z M248.8,298.3
		c-0.3,4-3.2,5.4-6.9,5.4c-3.3,0-6.6,0-9.8,0c0,0,0-0.1,0-0.1c-3.6,0-7.2,0-10.8,0c-3.8-0.1-6.4-2-6.3-5.9c0.1-3.8,2.7-5.9,6.5-6
		c6.9-0.1,13.8-0.1,20.7,0C246.3,291.8,249.1,293.9,248.8,298.3z M296.6,298.4c-0.3,3.9-3.2,5.4-7,5.3c-3.3-0.1-6.6,0-9.9,0
		c0,0,0-0.1,0-0.1c-3.3,0-6.6,0-9.9,0c-4.2,0-7.3-1.5-7.2-6.1c0.1-3.8,2.9-5.8,6.6-5.9c6.9-0.1,13.8-0.1,20.7,0
		C294.3,291.7,296.9,294.1,296.6,298.4z M336.8,221.3c10.9-0.1,20.3,9.3,20.2,20.1c-0.1,10.9-9.6,20.1-20.5,19.9
		c-11-0.2-19.9-9.6-19.5-20.7C317.3,229.9,326,221.4,336.8,221.3z M336.6,315.6c-11.1-0.1-19.9-9.3-19.5-20.4
		c0.4-10.6,9.2-19.3,19.7-19.5c10.7-0.1,20.3,9.5,20.2,20.2C356.9,306.8,347.7,315.7,336.6,315.6z M392.1,221.4
		c11-0.2,20.4,8.7,20.5,19.7c0.1,10.9-9.2,20.2-20.1,20.2c-11,0-20-9.2-19.9-20.2C372.7,230.3,381.4,221.6,392.1,221.4z
		 M393.1,315.6c-11.3,0.3-20.4-8.6-20.4-19.8c0-10.7,8.8-19.8,19.4-20.1c10.8-0.3,20.5,9.2,20.6,20
		C412.7,306.3,403.9,315.3,393.1,315.6z"/>
</g>
</svg>
