<?xml version="1.0" standalone="no"?>
<!DOCTYPE svg PUBLIC "-//W3C//DTD SVG 20010904//EN"
 "http://www.w3.org/TR/2001/REC-SVG-20010904/DTD/svg10.dtd">
<svg version="1.0" xmlns="http://www.w3.org/2000/svg"
 width="72.000000pt" height="72.000000pt" viewBox="0 0 72.000000 72.000000"
 preserveAspectRatio="xMidYMid meet">
<metadata>
Created by potrace 1.10, written by Peter Selinger 2001-2011
</metadata>
<g transform="translate(0.000000,72.000000) scale(0.100000,-0.100000)"
fill="#000000" stroke="none">
<path d="M273 676 c-99 -32 -175 -99 -218 -191 -28 -58 -27 -193 2 -257 30
-66 96 -133 162 -165 48 -24 68 -28 141 -28 73 0 93 4 141 28 66 32 132 99
162 165 30 66 30 198 0 262 -70 147 -249 232 -390 186z m132 -17 c75 -14 121
-37 169 -86 89 -89 115 -224 64 -334 -43 -95 -99 -143 -203 -176 -131 -41
-297 38 -352 167 -52 123 -27 257 64 345 46 45 82 65 148 81 28 7 50 13 51 13
0 1 27 -4 59 -10z"/>
<path d="M230 562 c-8 -3 -23 -12 -33 -20 -15 -14 -17 -34 -16 -171 1 -181 7
-201 66 -201 46 0 307 134 324 168 9 15 10 31 3 50 -7 22 -36 41 -149 99 -142
73 -169 83 -195 75z m169 -83 c160 -84 161 -85 161 -115 0 -28 -14 -38 -186
-126 -110 -56 -124 -61 -148 -50 -23 10 -26 18 -26 58 0 46 0 46 28 38 85 -26
155 6 160 72 2 22 -3 47 -11 58 -14 19 -15 18 -55 -4 -39 -22 -40 -24 -26 -46
18 -27 15 -76 -5 -82 -10 -4 -12 2 -7 22 8 31 -8 66 -29 66 -31 0 -13 20 51
56 62 35 66 36 79 18 32 -42 38 -82 18 -122 -24 -50 -73 -75 -135 -68 -46 5
-48 4 -48 -20 0 -13 7 -27 15 -30 8 -3 61 18 117 47 161 82 183 96 183 114 0
12 -43 40 -140 90 -176 93 -175 93 -175 -45 0 -60 -4 -100 -10 -100 -6 0 -10
41 -10 102 0 105 11 138 48 138 9 0 76 -32 151 -71z m-103 5 l35 -17 -38 -23
c-21 -12 -41 -20 -45 -18 -12 8 -9 74 3 74 6 0 26 -7 45 -16z m188 -98 c21
-13 35 -26 30 -28 -5 -3 -26 -15 -46 -27 l-38 -21 0 50 c0 28 3 50 8 50 4 0
24 -11 46 -24z m-124 4 c0 -5 -8 -10 -17 -11 -12 -1 -9 -4 7 -8 16 -4 25 -14
25 -26 0 -14 -8 -21 -25 -23 l-25 -2 25 14 25 15 -27 1 c-32 0 -44 15 -28 35
14 17 40 20 40 5z m-96 -49 c9 -13 -4 -41 -19 -41 -8 0 -10 9 -7 25 4 25 16
32 26 16z"/>
</g>
</svg>
