<?xml version="1.0" encoding="UTF-8"?>
<svg xmlns="http://www.w3.org/2000/svg" xmlns:xlink="http://www.w3.org/1999/xlink" width="60px" height="60px" viewBox="0 0 60 60" version="1.1">
    <!-- Generator: Sketch 52.6 (67491) - http://www.bohemiancoding.com/sketch -->
    <title>005 - Present</title>
    <desc>Created with Sketch.</desc>
    <g id="Page-1" stroke="none" stroke-width="1" fill="none" fill-rule="evenodd">
        <g id="005---Present" transform="translate(0.000000, -1.000000)">
            <g id="Icons_copy" transform="translate(1.000000, 2.000000)">
                <path d="M34,20 L55,20 L55,56 C54.9967052,57.1032019 54.1032019,57.9967052 53,58 L5,58 C3.89679813,57.9967052 3.0032948,57.1032019 3,56 L3,20 L24,20" id="Path" fill="#FFDC00"/>
                <path d="M52,20 L52,56 C51.9967052,57.1032019 51.1032019,57.9967052 50,58 L53,58 C54.1032019,57.9967052 54.9967052,57.1032019 55,56 L55,20 L52,20 Z" id="Path" fill="#FF8401"/>
                <path d="M2,12 L24,12 L24,20 L2,20 C0.896798134,19.9967052 0.00329480111,19.1032019 -4.4408921e-16,18 L-4.4408921e-16,14 C0.00329480111,12.8967981 0.896798134,12.0032948 2,12 Z" id="Path" fill="#FFDC00"/>
                <rect id="Rectangle" fill="#FF8401" x="21" y="12" width="3" height="8"/>
                <path d="M58,14 L58,18 C57.9967052,19.1032019 57.1032019,19.9967052 56,20 L34,20 L34,12 L56,12 C57.1032019,12.0032948 57.9967052,12.8967981 58,14 Z" id="Path" fill="#FFDC00"/>
                <path d="M56,12 L53,12 C54.1032019,12.0032948 54.9967052,12.8967981 55,14 L55,18 C54.9967052,19.1032019 54.1032019,19.9967052 53,20 L56,20 C57.1032019,19.9967052 57.9967052,19.1032019 58,18 L58,14 C57.9967052,12.8967981 57.1032019,12.0032948 56,12 Z" id="Path" fill="#FF8401"/>
                <rect id="Rectangle" fill="#48BDFF" x="24" y="11" width="10" height="10" rx="1"/>
                <path d="M33,11 L30,11 C30.5522847,11 31,11.4477153 31,12 L31,20 C31,20.5522847 30.5522847,21 30,21 L33,21 C33.5522847,21 34,20.5522847 34,20 L34,12 C34,11.4477153 33.5522847,11 33,11 Z" id="Path" fill="#2C98F6"/>
                <path d="M35,0 C31.6862915,2.22044605e-16 29,2.6862915 29,6 C29,2.6862915 26.3137085,-6.66133815e-16 23,-8.8817842e-16 C19.6862915,-1.11022302e-15 17,2.6862915 17,6 C17,9.3137085 19.6862915,12 23,12 L35,12 C38.3137085,12 40.9999999,9.31370846 40.9999999,6 C40.9999999,2.68629154 38.3137085,4.93781038e-08 35,0 Z M23,8 C21.8954305,8 21,7.1045695 21,6 C21,4.8954305 21.8954305,4 23,4 C24.1045695,4 25,4.8954305 25,6 C24.9967052,7.10320187 24.1032019,7.9967052 23,8 Z M35,8 C33.8954305,8 33,7.1045695 33,6 C33,4.8954305 33.8954305,4 35,4 C36.1045695,4 37,4.8954305 37,6 C36.9967052,7.10320187 36.1032019,7.9967052 35,8 Z" id="Shape" fill="#48BDFF" fill-rule="nonzero"/>
                <path d="M35,0 C34.4935504,0.00291082776 33.9895197,0.0701149099 33.5,0.2 C36.407338,0.969841525 38.2955388,3.7732036 37.916277,6.75673012 C37.5370151,9.74025665 35.0074819,11.9820424 32,12 L35,12 C38.3137084,11.9999999 40.9999998,9.31370844 40.9999998,6 C40.9999998,2.68629156 38.3137084,8.55253854e-08 35,0 Z" id="Path" fill="#2C98F6"/>
                <path d="M42.881,39.416 L41.337,41.887 L41.684,44.797 C41.7196336,45.0980655 41.5787197,45.3927389 41.322,45.554 L38.892,47.084 L37.976,49.849 C37.8793029,50.1419345 37.6198108,50.3509371 37.313,50.383 L34.49,50.683 L32.5,52.758 C32.283194,52.9842105 31.9527434,53.0600452 31.659,52.951 L29,51.965 L26.336,52.951 C26.0425621,53.0598765 25.7124873,52.9840379 25.496,52.758 L23.509,50.684 L20.686,50.384 C20.379566,50.3515649 20.120549,50.1426297 20.024,49.85 L19.107,47.084 L16.677,45.554 C16.4206622,45.3924777 16.2801621,45.0978557 16.316,44.797 L16.663,41.888 L15.119,39.417 C14.9599459,39.1624716 14.9599459,38.8395284 15.119,38.585 L16.663,36.114 L16.316,33.204 C16.2803664,32.9029345 16.4212803,32.6082611 16.678,32.447 L19.108,30.917 L20.024,28.152 C20.1206971,27.8590655 20.3801892,27.6500629 20.687,27.618 L23.51,27.318 L25.5,25.242 C25.716806,25.0157895 26.0472566,24.9399548 26.341,25.049 L29,26.035 L31.664,25.049 C31.9574379,24.9401235 32.2875127,25.0159621 32.504,25.242 L34.491,27.316 L37.314,27.616 C37.620434,27.6484351 37.879451,27.8573703 37.976,28.15 L38.893,30.916 L41.323,32.446 C41.5793378,32.6075223 41.7198379,32.9021443 41.684,33.203 L41.337,36.112 L42.881,38.583 C43.0404711,38.8377696 43.0404711,39.1612304 42.881,39.416 Z" id="Path" fill="#DB4E6C"/>
                <path d="M42.881,38.584 L41.337,36.113 L41.684,33.204 C41.7198379,32.9031443 41.5793378,32.6085223 41.323,32.447 L38.893,30.917 L37.977,28.151 C37.8796525,27.8585167 37.6205087,27.6497945 37.314,27.617 L34.491,27.317 L32.5,25.242 C32.2835127,25.0159621 31.9534379,24.9401235 31.66,25.049 L29.929,25.69 L31.487,27.316 L34.31,27.616 C34.6165087,27.6487945 34.8756525,27.8575167 34.973,28.15 L35.889,30.916 L38.319,32.446 C38.5753378,32.6075223 38.7158379,32.9021443 38.68,33.203 L38.333,36.112 L39.877,38.583 C40.0360541,38.8375284 40.0360541,39.1604716 39.877,39.415 L38.333,41.886 L38.68,44.796 C38.7156336,45.0970655 38.5747197,45.3917389 38.318,45.553 L35.888,47.083 L34.972,49.848 C34.8753029,50.1409345 34.6158108,50.3499371 34.309,50.382 L31.486,50.682 L29.932,52.31 L31.663,52.951 C31.9567434,53.0600452 32.287194,52.9842105 32.504,52.758 L34.49,50.684 L37.313,50.384 C37.6198108,50.3519371 37.8793029,50.1429345 37.976,49.85 L38.892,47.085 L41.322,45.555 C41.5787197,45.3937389 41.7196336,45.0990655 41.684,44.798 L41.337,41.888 L42.881,39.417 C43.0404711,39.1622304 43.0404711,38.8387696 42.881,38.584 Z" id="Path" fill="#A43B51"/>
                <circle id="Oval" fill="#FFFFFF" cx="24.5" cy="34.5" r="2.5"/>
                <circle id="Oval" fill="#FFFFFF" cx="33.5" cy="43.5" r="2.5"/>
            </g>
            <g id="Icons_copy_2" transform="translate(1.000000, 2.000000)" fill="#FFFFFF">
                <path d="M2,20 L3,20 L3,56 C3.0032948,57.1032019 3.89679813,57.9967052 5,58 L8,58 C6.89679813,57.9967052 6.0032948,57.1032019 6,56 L6,20 L5,20 C3.89679813,19.9967052 3.0032948,19.1032019 3,18 L3,14 C3.0032948,12.8967981 3.89679813,12.0032948 5,12 L2,12 C0.896798134,12.0032948 0.00329480111,12.8967981 -4.4408921e-16,14 L-4.4408921e-16,18 C0.00329480111,19.1032019 0.896798134,19.9967052 2,20 Z" id="Path"/>
                <path d="M23,12 L26,12.0001076 C22.9925181,11.9820424 20.4629849,9.74025665 20.083723,6.75673012 C19.7044612,3.7732036 21.592662,0.969841525 24.5,0.2 C22.2437832,-0.397429479 19.8458559,0.367742955 18.3526896,2.16159099 C16.8595233,3.95543902 16.5421134,6.45239616 17.5389799,8.56277378 C18.5358464,10.6731514 20.6660672,12.0139359 23,12 Z" id="Path"/>
            </g>
            <g id="Icons">
                <rect id="Rectangle" fill="#FFFFFF" x="3" y="22" width="2" height="8"/>
                <path d="M4.02,27 C3.46771525,27.0027614 3.01776142,26.5572847 3.015,26.005 C3.01223858,25.4527153 3.45771525,25.0027614 4.01,25 L4.02,25 C4.57228475,25 5.02,25.4477153 5.02,26 C5.02,26.5522847 4.57228475,27 4.02,27 Z" id="Path" fill="#000000"/>
                <path d="M8,52 C7.44771525,52 7,52.4477153 7,53 L7,56 C7,56.5522847 7.44771525,57 8,57 L11,57 C11.5522847,57 12,56.5522847 12,56 C12,55.4477153 11.5522847,55 11,55 L9,55 L9,53 C9,52.4477153 8.55228475,52 8,52 Z" id="Path" fill="#000000"/>
                <path d="M57,13 L46.165,13 C47.4136561,11.7591223 48.0800884,10.0485521 48,8.29 C47.9048939,7.17639057 48.2855269,6.0745483 49.0477215,5.25709461 C49.8099161,4.43964092 50.8824669,3.98294353 52,4 C52.5522847,4 53,3.55228475 53,3 C53,2.44771525 52.5522847,2 52,2 C50.3485107,1.97019801 48.7600069,2.63334678 47.6199147,3.82854341 C46.4798225,5.02374004 45.8923361,6.64175437 46,8.29 C46,9.39 45.993,12.614 40.928,12.965 C42.8638715,11.0594188 43.5225096,8.2059161 42.6176645,5.64464812 C41.7128194,3.08338014 39.407884,1.27684907 36.7046025,1.01018845 C34.0013211,0.74352784 31.38784,2.06489006 30,4.4 C28.6102402,2.06806605 25.9975294,0.749914889 23.2961245,1.0177959 C20.5947197,1.28567691 18.2917718,3.09128245 17.3870604,5.65074441 C16.482349,8.21020637 17.1390229,11.0619707 19.072,12.968 C14.007,12.614 14,9.391 14,8.29 C14.1076639,6.64175437 13.5201775,5.02374004 12.3800853,3.82854341 C11.2399931,2.63334678 9.65148933,1.97019801 8,2 C7.44771525,2 7,2.44771525 7,3 C7,3.55228475 7.44771525,4 8,4 C9.11753309,3.98294353 10.1900839,4.43964092 10.9522785,5.25709461 C11.7144731,6.0745483 12.0951061,7.17639057 12,8.29 C11.9199116,10.0485521 12.5863439,11.7591223 13.835,13 L3,13 C1.34314575,13 2.02906125e-16,14.3431458 0,16 L0,20 C2.02906125e-16,21.6568542 1.34314575,23 3,23 L24.278,23 C24.6324126,23.6167513 25.2886732,23.997855 26,24 L34,24 C34.7113268,23.997855 35.3675874,23.6167513 35.722,23 L55,23 L55,58 C55,58.5522847 54.5522847,59 54,59 L6,59 C5.44771525,59 5,58.5522847 5,58 L5,30 C5,29.4477153 4.55228475,29 4,29 C3.44771525,29 3,29.4477153 3,30 L3,58 C3,59.6568542 4.34314575,61 6,61 L54,61 C55.6568542,61 57,59.6568542 57,58 L57,23 C58.6568542,23 60,21.6568542 60,20 L60,16 C60,14.3431458 58.6568542,13 57,13 Z M19,8 C19,5.23857625 21.2385763,3 24,3 C26.7614237,3 29,5.23857625 29,8 C29,8.55228475 29.4477153,9 30,9 C30.5522847,9 31,8.55228475 31,8 C31,5.97768878 32.2182109,4.15450734 34.0865828,3.38060234 C35.9549548,2.60669734 38.1055439,3.03447611 39.5355339,4.46446609 C40.9655239,5.89445607 41.3933027,8.04504521 40.6193977,9.91341716 C39.8454927,11.7817891 38.0223112,13 36,13 L35.722,13 C35.3675874,12.3832487 34.7113268,12.002145 34,12 L26,12 C25.2886732,12.002145 24.6324126,12.3832487 24.278,13 L24,13 C21.2399468,12.9966939 19.0033061,10.7600532 19,8 Z M3,21 C2.44771525,21 2,20.5522847 2,20 L2,16 C2,15.4477153 2.44771525,15 3,15 L24,15 L24,21 L3,21 Z M26,22 L26,14 L34,14 L34,22 L26,22 Z M58,20 C58,20.5522847 57.5522847,21 57,21 L36,21 L36,15 L57,15 C57.5522847,15 58,15.4477153 58,16 L58,20 Z" id="Shape" fill="#000000" fill-rule="nonzero"/>
                <path d="M24,11 C24.5522847,11 25,10.5522847 25,10 C25,9.44771525 24.5522847,9 24,9 C23.4477153,9 23,8.55228475 23,8 C23,7.44771525 23.4477153,7 24,7 C24.5522847,7 25,7.44771525 25,8 C25,8.55228475 25.4477153,9 26,9 C26.5522847,9 27,8.55228475 27,8 C27,6.34314575 25.6568542,5 24,5 C22.3431458,5 21,6.34314575 21,8 C21,9.65685425 22.3431458,11 24,11 Z" id="Path" fill="#000000"/>
                <path d="M34,9 C34.5522847,9 35,8.55228475 35,8 C35,7.44771525 35.4477153,7 36,7 C36.5522847,7 37,7.44771525 37,8 C37,8.55228475 36.5522847,9 36,9 C35.4477153,9 35,9.44771525 35,10 C35,10.5522847 35.4477153,11 36,11 C37.6568542,11 39,9.65685425 39,8 C39,6.34314575 37.6568542,5 36,5 C34.3431458,5 33,6.34314575 33,8 C33,8.26521649 33.1053568,8.5195704 33.2928932,8.70710678 C33.4804296,8.89464316 33.7347835,9 34,9 Z" id="Path" fill="#000000"/>
                <path d="M15.271,41.945 L16.628,44.118 L16.328,46.679 C16.2487723,47.3626463 16.5682888,48.031221 17.15,48.399 L19.276,49.738 L20.076,52.164 C20.2980483,52.8277354 20.886196,53.3014559 21.582,53.377 L24.042,53.64 L25.775,55.449 C26.2675853,55.9630574 27.0182106,56.1358859 27.686,55.889 L30,55.032 L32.317,55.89 C32.98423,56.135734 33.733649,55.9630026 34.226,55.45 L35.959,53.64 L38.42,53.377 C39.1140432,53.3004463 39.6999244,52.8266637 39.92,52.164 L40.72,49.739 L42.854,48.4 C43.4366081,48.0319858 43.7565794,47.3624953 43.677,46.678 L43.377,44.118 L44.734,41.944 C45.0913547,41.3646755 45.0913547,40.6333245 44.734,40.054 L43.377,37.881 L43.677,35.32 C43.7562277,34.6363537 43.4367112,33.967779 42.855,33.6 L40.729,32.261 L39.929,29.835 C39.7069517,29.1712646 39.118804,28.6975441 38.423,28.622 L35.963,28.359 L34.23,26.55 C33.7379551,26.034992 32.9867192,25.862023 32.319,26.11 L30,26.968 L27.683,26.11 C27.0156852,25.865615 26.2670177,26.0381733 25.774,26.55 L24.041,28.36 L21.58,28.623 C20.8859568,28.6995537 20.3000756,29.1733363 20.08,29.836 L19.28,32.261 L17.146,33.6 C16.5633919,33.9680142 16.2434206,34.6375047 16.323,35.322 L16.623,37.882 L15.266,40.056 C14.9105877,40.6360253 14.9125222,41.3668643 15.271,41.945 Z M18.511,38.645 C18.6317305,38.4518208 18.6828856,38.2232106 18.656,37.997 L18.326,35.222 L20.641,33.764 C20.8371628,33.6402721 20.9842204,33.452208 21.057,33.232 L21.93,30.6 L24.616,30.314 C24.8502541,30.2896588 25.0684005,30.1834187 25.232,30.014 L27.122,28.042 L29.653,28.98 C29.876916,29.0628465 30.123084,29.0628465 30.347,28.98 L32.879,28.043 L34.769,30.015 C34.9325995,30.1844187 35.1507459,30.2906588 35.385,30.315 L38.071,30.602 L38.943,33.236 C39.0160348,33.4563604 39.1634623,33.6444454 39.36,33.768 L41.675,35.226 L41.344,38 C41.3171144,38.2262106 41.3682695,38.4548208 41.489,38.648 L42.961,41 L41.489,43.357 C41.3682695,43.5501792 41.3171144,43.7787894 41.344,44.005 L41.674,46.78 L39.359,48.238 C39.1628372,48.3617279 39.0157796,48.549792 38.943,48.77 L38.07,51.4 L35.384,51.686 C35.1497459,51.7103412 34.9315995,51.8165813 34.768,51.986 L32.878,53.958 L30.347,53.02 C30.123084,52.9371535 29.876916,52.9371535 29.653,53.02 L27.121,53.957 L25.231,51.985 C25.0674005,51.8155813 24.8492541,51.7093412 24.615,51.685 L21.929,51.4 L21.057,48.766 C20.9839652,48.5456396 20.8365377,48.3575546 20.64,48.234 L18.325,46.776 L18.656,44.002 C18.6828856,43.7757894 18.6317305,43.5471792 18.511,43.354 L17.039,41 L18.511,38.645 Z" id="Shape" fill="#000000" fill-rule="nonzero"/>
                <path d="M25.5,40 C27.4329966,40 29,38.4329966 29,36.5 C29,34.5670034 27.4329966,33 25.5,33 C23.5670034,33 22,34.5670034 22,36.5 C22,38.4329966 23.5670034,40 25.5,40 Z M25.5,35 C26.3284271,35 27,35.6715729 27,36.5 C27,37.3284271 26.3284271,38 25.5,38 C24.6715729,38 24,37.3284271 24,36.5 C24,35.6715729 24.6715729,35 25.5,35 Z" id="Shape" fill="#000000" fill-rule="nonzero"/>
                <path d="M34.5,42 C32.5670034,42 31,43.5670034 31,45.5 C31,47.4329966 32.5670034,49 34.5,49 C36.4329966,49 38,47.4329966 38,45.5 C38,43.5670034 36.4329966,42 34.5,42 Z M34.5,47 C33.6715729,47 33,46.3284271 33,45.5 C33,44.6715729 33.6715729,44 34.5,44 C35.3284271,44 36,44.6715729 36,45.5 C36,46.3284271 35.3284271,47 34.5,47 Z" id="Shape" fill="#000000" fill-rule="nonzero"/>
                <path d="M23.293,47.707 C23.6834999,48.0973819 24.3165001,48.0973819 24.707,47.707 L36.707,35.707 C37.0859722,35.3146211 37.0805524,34.6909152 36.6948186,34.3051814 C36.3090848,33.9194476 35.6853789,33.9140278 35.293,34.293 L23.293,46.293 C22.9026181,46.6834999 22.9026181,47.3165001 23.293,47.707 Z" id="Path" fill="#000000"/>
            </g>
        </g>
    </g>
</svg>
