<?xml version="1.0" encoding="utf-8"?>
<!-- Generator: Adobe Illustrator 23.0.3, SVG Export Plug-In . SVG Version: 6.00 Build 0)  -->
<svg version="1.1" id="Layer_1" xmlns="http://www.w3.org/2000/svg" xmlns:xlink="http://www.w3.org/1999/xlink" x="0px" y="0px"
	 viewBox="0 0 512 512" style="enable-background:new 0 0 512 512;" xml:space="preserve">
<style type="text/css">
	.st0{fill:#141C28;}
	.st1{fill:#F9AB18;}
	.st2{fill-rule:evenodd;clip-rule:evenodd;fill:#F9AB18;}
</style>
<title>document-star-flat</title>
<path class="st0" d="M422.4,153.6V448c0,35.3-28.7,64-64,64H76.8c-35.3,0-64-28.7-64-64V64c0-35.3,28.7-64,64-64h192.1L422.4,153.6z
	"/>
<path class="st1" d="M422.4,153.6h-89.6c-35.3,0-64-28.7-64-64V0h0.1L422.4,153.6z"/>
<path class="st1" d="M217.6,256c0,7.1-5.7,12.8-12.8,12.8H128c-7.1,0-12.8-5.7-12.8-12.8l0,0c0-7.1,5.7-12.8,12.8-12.8c0,0,0,0,0,0
	h76.8C211.9,243.2,217.6,248.9,217.6,256L217.6,256z"/>
<path class="st1" d="M294.4,307.2c0,7.1-5.7,12.8-12.8,12.8H128c-7.1,0-12.8-5.7-12.8-12.8l0,0c0-7.1,5.7-12.8,12.8-12.8
	c0,0,0,0,0,0h153.6C288.7,294.4,294.4,300.1,294.4,307.2L294.4,307.2z"/>
<path class="st1" d="M294,358.4c0,7.1-5.7,12.8-12.8,12.8H128c-7.1,0-12.8-5.7-12.8-12.8l0,0c0-7.1,5.7-12.8,12.8-12.8h153.2
	C288.3,345.6,294,351.3,294,358.4z"/>
<path class="st2" d="M442.4,380l10,21c2.1,4.6,6.4,7.9,11.5,8.6l22.3,3.4c12.5,1.9,17.5,17.8,8.4,27l-16.1,16.4
	c-3.6,3.7-5.2,8.9-4.4,14l3.8,23.1c2.1,12.9-10.9,22.8-22.1,16.7l-19.9-10.9c-4.4-2.4-9.8-2.4-14.2,0l-19.9,10.9
	c-11.2,6.1-24.2-3.8-22.1-16.7l3.8-23.1c0.9-5.1-0.8-10.3-4.4-14L363,440c-9-9.1-4-25.1,8.4-27l22.3-3.4c5-0.8,9.3-4,11.5-8.6l10-21
	c3.5-7.5,12.4-10.8,19.9-7.4C438.3,374.1,440.9,376.8,442.4,380z"/>
</svg>
